<svg width="18" height="20" viewBox="0 0 18 20" fill="none" xmlns="http://www.w3.org/2000/svg">
<path d="M7.84073 0.000488281H1.59103C1.24586 0.000488281 0.966064 0.280279 0.966064 0.625458V19.3745C0.966064 19.7197 1.24586 19.9995 1.59103 19.9995H7.84073C8.18591 19.9995 8.4657 19.7197 8.4657 19.3745V0.625458C8.4657 0.280279 8.18587 0.000488281 7.84073 0.000488281ZM7.21576 18.7496H2.216V16.8747H5.34085V15.6247H2.216V13.7498H4.09091V12.4999H2.216V10.625H5.34085V9.37503H2.216V7.50012H4.09091V6.25018H2.216V4.37527H5.34085V3.12534H2.216V1.25043H7.21576V18.7496Z" fill="#B17955"/>
<path d="M16.1528 15.8122L14.0904 17.8684V2.13165L16.1465 4.1878L17.0278 3.3066L13.9029 0.181749C13.6591 -0.060583 13.2655 -0.060583 13.0217 0.181749L9.89685 3.3066L10.7781 4.1878L12.8405 2.13165V17.8684L10.7843 15.8122L9.9031 16.6934L13.0279 19.8183C13.2717 20.0606 13.6654 20.0606 13.9092 19.8183L17.034 16.6934L16.1528 15.8122Z" fill="#B17955"/>
</svg>
